<?xml version="1.0" encoding="UTF-8" standalone="no"?>
<!-- Created with Inkscape (http://www.inkscape.org/) -->

<svg
   xmlns:dc="http://purl.org/dc/elements/1.1/"
   xmlns:cc="http://creativecommons.org/ns#"
   xmlns:rdf="http://www.w3.org/1999/02/22-rdf-syntax-ns#"
   xmlns:svg="http://www.w3.org/2000/svg"
   xmlns="http://www.w3.org/2000/svg"
   xmlns:sodipodi="http://sodipodi.sourceforge.net/DTD/sodipodi-0.dtd"
   xmlns:inkscape="http://www.inkscape.org/namespaces/inkscape"
   width="200.45"
   height="200.45"
   id="svg3849"
   version="1.1"
   inkscape:version="0.48.3.1 r9886"
   sodipodi:docname="logo_w.svg">
  <defs
     id="defs3851" />
  <sodipodi:namedview
     id="base"
     pagecolor="#ffffff"
     bordercolor="#666666"
     borderopacity="1.0"
     inkscape:pageopacity="0.0"
     inkscape:pageshadow="2"
     inkscape:zoom="2.8"
     inkscape:cx="92.433658"
     inkscape:cy="62.343936"
     inkscape:document-units="px"
     inkscape:current-layer="layer1"
     showgrid="false"
     fit-margin-top="0"
     fit-margin-left="0"
     fit-margin-right="0"
     fit-margin-bottom="0"
     inkscape:window-width="1920"
     inkscape:window-height="1003"
     inkscape:window-x="0"
     inkscape:window-y="26"
     inkscape:window-maximized="1" />
  <metadata
     id="metadata3854">
    <rdf:RDF>
      <cc:Work
         rdf:about="">
        <dc:format>image/svg+xml</dc:format>
        <dc:type
           rdf:resource="http://purl.org/dc/dcmitype/StillImage" />
        <dc:title></dc:title>
      </cc:Work>
    </rdf:RDF>
  </metadata>
  <g
     inkscape:label="Layer 1"
     inkscape:groupmode="layer"
     id="layer1"
     transform="translate(-39.799334,-20.709641)">
    <path
       inkscape:connector-curvature="0"
       style="fill:#ffffff;fill-opacity:0.23166023;stroke:none"
       d="m 163.51949,67.659646 c -0.83461,0.0117 -1.69088,0.0653 -2.5625,0.125 -7.87522,0.53947 -12.88338,3.36008 -16.1875,5.0625 -12.13778,6.25389 -20.41039,17.79301 -19.53125,35.437504 0.31523,6.32673 6.892,15.01764 7.9375,16.84375 -3.5886,-2.90949 -7.21388,-6.59686 -11.625,-8.46875 -4.41016,-1.87148 -8.74262,-2.5844 -14.15625,-2.46875 -8.937899,0.19093 -17.502179,6.07123 -23.781249,13.375 -4.91483,5.7169 -7.8969,9.9347 -7.6875,20.9375 0.11662,6.12805 1.29108,12.55953 5.59375,20.09375 7.17878,1.69146 15.10386,0.68802 23.499999,-2.21875 11.24454,-3.8929 23.28851,-11.22046 35.21875,-19.9375 23.79286,-17.38468 47.14415,-40.24522 63.8125,-52.218754 -0.86343,-2.25725 -1.87048,-4.37294 -3,-6.28125 -5.52035,-9.32657 -14.07601,-14.1864 -21.03125,-17 -5.60081,-2.26569 -10.65773,-3.36322 -16.5,-3.28125 z m 41.34375,28.875 c -5.41329,3.17279 -12.60253,11.573464 -20.5,22.343754 -7.97172,10.87154 -16.77992,24.13551 -25.71875,36.90625 -8.93883,12.77074 -18.01191,25.06468 -26.65625,34 -5.55821,5.7453 -10.93121,10.14637 -16.0625,12.34375 8.02202,5.46158 16.47135,11.2154 23.8125,19.03125 5.23711,-4.2403 10.41133,-14.24735 16.625,-21.71875 11.14952,-13.4064 18.34839,-26.8067 30.71875,-42.03125 10.73949,-13.21739 17.15495,-29.21075 19.21875,-42.40625 1.05001,-6.71355 0.29456,-12.99208 -1.4375,-18.468754 z m -14.125,10.812504 c -14.45622,12.1385 -31.75543,27.86753 -49.34375,40.71875 -12.01532,8.77921 -24.15873,16.21663 -35.71875,20.21875 -7.936269,2.74757 -15.625779,3.86727 -22.749999,2.625 3.43856,5.40017 8.46302,11.3593 15.78125,18.21875 4.458389,4.17889 9.690569,7.87092 15.187499,11.625 5.03115,-1.82756 10.70261,-6.22095 16.65625,-12.375 8.49437,-8.7803 17.5501,-20.97683 26.46875,-33.71875 8.91865,-12.74192 17.70265,-26.03669 25.71875,-36.96875 2.77042,-3.77819 5.44165,-7.24025 8,-10.34375 z"
       id="path2996-4-4-9" />
    <path
       sodipodi:type="arc"
       style="color:#000000;fill:#ffffff;fill-opacity:0.23166023;stroke:none;stroke-width:1.68194007999999995;marker:none;visibility:visible;display:inline;overflow:visible;enable-background:accumulate"
       id="path3020-78"
       sodipodi:cx="227.7894"
       sodipodi:cy="387.17673"
       sodipodi:rx="38.890873"
       sodipodi:ry="38.890873"
       d="m 266.68027,387.17673 a 38.890873,38.890873 0 1 1 -77.78174,0 38.890873,38.890873 0 1 1 77.78174,0 z"
       transform="matrix(0.5945515,0,0,0.5945515,-8.6244894,-186.36629)" />
    <path
       sodipodi:type="arc"
       style="color:#000000;fill:#ffffff;fill-opacity:0.23166023;stroke:none;stroke-width:2.39559912999999991;marker:none;visibility:visible;display:inline;overflow:visible;enable-background:accumulate"
       id="path3020-7-1"
       sodipodi:cx="227.7894"
       sodipodi:cy="387.17673"
       sodipodi:rx="38.890873"
       sodipodi:ry="38.890873"
       d="m 266.68027,387.17673 a 38.890873,38.890873 0 1 1 -77.78174,0 38.890873,38.890873 0 1 1 77.78174,0 z"
       transform="matrix(0.41743211,0,0,0.41743211,-4.7077894,-68.087584)" />
    <path
       style="font-size:medium;font-style:normal;font-variant:normal;font-weight:normal;font-stretch:normal;text-indent:0;text-align:start;text-decoration:none;line-height:normal;letter-spacing:normal;word-spacing:normal;text-transform:none;direction:ltr;block-progression:tb;writing-mode:lr-tb;text-anchor:start;baseline-shift:baseline;color:#000000;fill:#ffffff;fill-opacity:0.23166023;fill-rule:nonzero;stroke:none;stroke-width:1.17873239999999990;marker:none;visibility:visible;display:inline;overflow:visible;enable-background:accumulate;font-family:Sans;-inkscape-font-specification:Sans"
       d="m 210.36324,87.878396 c -0.82222,0.0118 -1.67208,0.2579 -2.4375,0.84375 -1.52615,1.1681 -2.68874,3.5269 -3.0625,7.5 -10e-4,0.0122 0.001,0.019 0,0.0312 l -0.0312,0.34375 0.28125,0.1875 c 1.06366,0.7205 3.43942,2.78318 5.8125,4.000004 1.18654,0.60841 2.39301,1.04049 3.5625,0.90625 1.16949,-0.13424 2.20925,-0.93388 2.78125,-2.406254 0.22725,-0.58496 0.15718,-1.22208 -0.15625,-1.6875 -0.31343,-0.46542 -0.78472,-0.7599 -1.34375,-1 -1.11805,-0.4802 -2.62505,-0.71627 -4.15625,-0.84375 -0.0225,-0.002 -0.04,0.002 -0.0625,0 2.07897,-0.80413 3.25512,-2.07564 3.34375,-3.46875 0.0993,-1.56108 -0.86274,-2.97936 -2.21875,-3.78125 -0.678,-0.40094 -1.49028,-0.63677 -2.3125,-0.625 z m 0.0312,1.15625 c 0.58266,-0.005 1.14376,0.16568 1.65625,0.46875 1.02498,0.60613 1.72001,1.71653 1.65625,2.71875 -0.0638,1.00222 -0.78761,2.08149 -3.125,2.75 -0.89881,0.25706 -1.90064,0.49799 -2.875,0.65625 -0.0996,0.001 -0.24892,-0.002 -0.34375,0 -0.48245,0.008 -0.83256,0.0174 -1.15625,0.0312 0.429,-3.26058 1.38075,-5.19118 2.4375,-6 0.57276,-0.43838 1.16734,-0.62048 1.75,-0.625 z m -2.59375,7.78125 c 1.09752,-0.0112 2.39224,-0.0167 3.71875,0.0937 1.47134,0.1225 2.90136,0.37209 3.78125,0.75 0.43995,0.18895 0.72562,0.41834 0.84375,0.59375 0.11813,0.17541 0.1507,0.28627 0.0312,0.59375 -0.46255,1.190634 -1.03584,1.567104 -1.8125,1.656254 -0.77666,0.0892 -1.82287,-0.19449 -2.90625,-0.750004 -1.60254,-0.82172 -2.93418,-1.94539 -4.1875,-2.90625 0.18013,-0.0179 0.3516,-0.003 0.53125,-0.0312 z"
       id="path3874-2"
       inkscape:connector-curvature="0" />
  </g>
</svg>
